<?xml version="1.0" encoding="UTF-8" standalone="no"?>
<!DOCTYPE svg PUBLIC "-//W3C//DTD SVG 1.1//EN"
 "http://www.w3.org/Graphics/SVG/1.1/DTD/svg11.dtd">
<!-- Generated by graphviz version 2.40.1 (20161225.0304)
 -->
<!-- Title: dependencies Pages: 1 -->
<svg width="2864pt" height="211pt"
 viewBox="0.00 0.00 2864.00 211.00" xmlns="http://www.w3.org/2000/svg" xmlns:xlink="http://www.w3.org/1999/xlink">
<g id="graph0" class="graph" transform="scale(1 1) rotate(0) translate(4 207)">
<title>dependencies</title>
<polygon fill="#ffffff" stroke="transparent" points="-4,4 -4,-207 2860,-207 2860,4 -4,4"/>
<text text-anchor="start" x="1407.0091" y="-42.4" font-family="sans-serif" font-weight="bold" font-size="14.00" fill="#000000">Legend</text>
<polygon fill="#ffffb3" stroke="transparent" points="1194,-10 1194,-30 1214,-30 1214,-10 1194,-10"/>
<text text-anchor="start" x="1217.629" y="-15.4" font-family="sans-serif" font-size="14.00" fill="#000000"> &#160;Declarations</text>
<polygon fill="#8dd3c7" stroke="transparent" points="1307,-10 1307,-30 1327,-30 1327,-10 1307,-10"/>
<text text-anchor="start" x="1330.7251" y="-15.4" font-family="sans-serif" font-size="14.00" fill="#000000"> &#160;Module</text>
<polygon fill="#80b1d3" stroke="transparent" points="1393,-10 1393,-30 1413,-30 1413,-10 1393,-10"/>
<text text-anchor="start" x="1416.7812" y="-15.4" font-family="sans-serif" font-size="14.00" fill="#000000"> &#160;Bootstrap</text>
<polygon fill="#fdb462" stroke="transparent" points="1490,-10 1490,-30 1510,-30 1510,-10 1490,-10"/>
<text text-anchor="start" x="1513.6732" y="-15.4" font-family="sans-serif" font-size="14.00" fill="#000000"> &#160;Providers</text>
<polygon fill="#fb8072" stroke="transparent" points="1586,-10 1586,-30 1606,-30 1606,-10 1586,-10"/>
<text text-anchor="start" x="1609.7258" y="-15.4" font-family="sans-serif" font-size="14.00" fill="#000000"> &#160;Exports</text>
<g id="clust1" class="cluster">
<title>cluster_BlogModule</title>
<polygon fill="none" stroke="#000000" stroke-dasharray="1,5" points="8,-70 8,-195 2848,-195 2848,-70 8,-70"/>
</g>
<g id="clust2" class="cluster">
<title>cluster_BlogModule_declarations</title>
<polygon fill="none" stroke="#000000" points="1143,-78 1143,-130 2840,-130 2840,-78 1143,-78"/>
</g>
<g id="clust13" class="cluster">
<title>cluster_BlogModule_imports</title>
<polygon fill="none" stroke="#000000" points="206,-78 206,-130 1135,-130 1135,-78 206,-78"/>
</g>
<g id="clust16" class="cluster">
<title>cluster_BlogModule_providers</title>
<polygon fill="none" stroke="#000000" points="16,-78 16,-130 198,-130 198,-78 16,-78"/>
</g>
<!-- BlogAddComponent -->
<g id="node1" class="node">
<title>BlogAddComponent</title>
<polygon fill="#ffffb3" stroke="#000000" points="2832.1666,-122 2699.8334,-122 2699.8334,-86 2832.1666,-86 2832.1666,-122"/>
<text text-anchor="middle" x="2766" y="-99.8" font-family="Times,serif" font-size="14.00" fill="#000000">BlogAddComponent</text>
</g>
<!-- BlogModule -->
<g id="node11" class="node">
<title>BlogModule</title>
<polygon fill="#8dd3c7" stroke="#000000" points="1431.2773,-187 1428.2773,-191 1407.2773,-191 1404.2773,-187 1344.7227,-187 1344.7227,-151 1431.2773,-151 1431.2773,-187"/>
<text text-anchor="middle" x="1388" y="-164.8" font-family="Times,serif" font-size="14.00" fill="#000000">BlogModule</text>
</g>
<!-- BlogAddComponent&#45;&gt;BlogModule -->
<g id="edge1" class="edge">
<title>BlogAddComponent&#45;&gt;BlogModule</title>
<path fill="none" stroke="#000000" d="M2766,-122.3228C2766,-145.6602 2766,-183 2766,-183 2766,-183 1441.5167,-183 1441.5167,-183"/>
<polygon fill="#000000" stroke="#000000" points="1441.5168,-179.5001 1431.5167,-183 1441.5167,-186.5001 1441.5168,-179.5001"/>
</g>
<!-- BlogComponent -->
<g id="node2" class="node">
<title>BlogComponent</title>
<polygon fill="#ffffb3" stroke="#000000" points="2681.0605,-122 2572.9395,-122 2572.9395,-86 2681.0605,-86 2681.0605,-122"/>
<text text-anchor="middle" x="2627" y="-99.8" font-family="Times,serif" font-size="14.00" fill="#000000">BlogComponent</text>
</g>
<!-- BlogComponent&#45;&gt;BlogModule -->
<g id="edge2" class="edge">
<title>BlogComponent&#45;&gt;BlogModule</title>
<path fill="none" stroke="#000000" d="M2627,-122.1554C2627,-144.3519 2627,-179 2627,-179 2627,-179 1441.3702,-179 1441.3702,-179"/>
<polygon fill="#000000" stroke="#000000" points="1441.3702,-175.5001 1431.3702,-179 1441.3701,-182.5001 1441.3702,-175.5001"/>
</g>
<!-- BlogDashboardComponent -->
<g id="node3" class="node">
<title>BlogDashboardComponent</title>
<polygon fill="#ffffb3" stroke="#000000" points="2554.7007,-122 2385.2993,-122 2385.2993,-86 2554.7007,-86 2554.7007,-122"/>
<text text-anchor="middle" x="2470" y="-99.8" font-family="Times,serif" font-size="14.00" fill="#000000">BlogDashboardComponent</text>
</g>
<!-- BlogDashboardComponent&#45;&gt;BlogModule -->
<g id="edge3" class="edge">
<title>BlogDashboardComponent&#45;&gt;BlogModule</title>
<path fill="none" stroke="#000000" d="M2470,-122.2843C2470,-143.3211 2470,-175 2470,-175 2470,-175 1441.419,-175 1441.419,-175"/>
<polygon fill="#000000" stroke="#000000" points="1441.419,-171.5001 1431.419,-175 1441.419,-178.5001 1441.419,-171.5001"/>
</g>
<!-- BlogEditComponent -->
<g id="node4" class="node">
<title>BlogEditComponent</title>
<polygon fill="#ffffb3" stroke="#000000" points="2366.8934,-122 2235.1066,-122 2235.1066,-86 2366.8934,-86 2366.8934,-122"/>
<text text-anchor="middle" x="2301" y="-99.8" font-family="Times,serif" font-size="14.00" fill="#000000">BlogEditComponent</text>
</g>
<!-- BlogEditComponent&#45;&gt;BlogModule -->
<g id="edge4" class="edge">
<title>BlogEditComponent&#45;&gt;BlogModule</title>
<path fill="none" stroke="#000000" d="M2301,-122.308C2301,-142.1455 2301,-171 2301,-171 2301,-171 1441.4217,-171 1441.4217,-171"/>
<polygon fill="#000000" stroke="#000000" points="1441.4217,-167.5001 1431.4217,-171 1441.4216,-174.5001 1441.4217,-167.5001"/>
</g>
<!-- BlogGroupAddComponent -->
<g id="node5" class="node">
<title>BlogGroupAddComponent</title>
<polygon fill="#ffffb3" stroke="#000000" points="2217.434,-122 2048.566,-122 2048.566,-86 2217.434,-86 2217.434,-122"/>
<text text-anchor="middle" x="2133" y="-99.8" font-family="Times,serif" font-size="14.00" fill="#000000">BlogGroupAddComponent</text>
</g>
<!-- BlogGroupAddComponent&#45;&gt;BlogModule -->
<g id="edge5" class="edge">
<title>BlogGroupAddComponent&#45;&gt;BlogModule</title>
<path fill="none" stroke="#000000" d="M2133,-122.2222C2133,-140.8285 2133,-167 2133,-167 2133,-167 1441.5478,-167 1441.5478,-167"/>
<polygon fill="#000000" stroke="#000000" points="1441.5478,-163.5001 1431.5478,-167 1441.5477,-170.5001 1441.5478,-163.5001"/>
</g>
<!-- BlogGroupEditComponent -->
<g id="node6" class="node">
<title>BlogGroupEditComponent</title>
<polygon fill="#ffffb3" stroke="#000000" points="2030.6609,-122 1863.3391,-122 1863.3391,-86 2030.6609,-86 2030.6609,-122"/>
<text text-anchor="middle" x="1947" y="-99.8" font-family="Times,serif" font-size="14.00" fill="#000000">BlogGroupEditComponent</text>
</g>
<!-- BlogGroupEditComponent&#45;&gt;BlogModule -->
<g id="edge6" class="edge">
<title>BlogGroupEditComponent&#45;&gt;BlogModule</title>
<path fill="none" stroke="#000000" d="M1947,-122.0225C1947,-139.3734 1947,-163 1947,-163 1947,-163 1441.3986,-163 1441.3986,-163"/>
<polygon fill="#000000" stroke="#000000" points="1441.3987,-159.5001 1431.3986,-163 1441.3986,-166.5001 1441.3987,-159.5001"/>
</g>
<!-- BlogGroupListComponent -->
<g id="node7" class="node">
<title>BlogGroupListComponent</title>
<polygon fill="#ffffb3" stroke="#000000" points="1845.1052,-122 1678.8948,-122 1678.8948,-86 1845.1052,-86 1845.1052,-122"/>
<text text-anchor="middle" x="1762" y="-99.8" font-family="Times,serif" font-size="14.00" fill="#000000">BlogGroupListComponent</text>
</g>
<!-- BlogGroupListComponent&#45;&gt;BlogModule -->
<g id="edge7" class="edge">
<title>BlogGroupListComponent&#45;&gt;BlogModule</title>
<path fill="none" stroke="#000000" d="M1762,-122.0091C1762,-138.0494 1762,-159 1762,-159 1762,-159 1441.6345,-159 1441.6345,-159"/>
<polygon fill="#000000" stroke="#000000" points="1441.6345,-155.5001 1431.6345,-159 1441.6345,-162.5001 1441.6345,-155.5001"/>
</g>
<!-- BlogGroupManageComponent -->
<g id="node8" class="node">
<title>BlogGroupManageComponent</title>
<polygon fill="#ffffb3" stroke="#000000" points="1660.9157,-122 1471.0843,-122 1471.0843,-86 1660.9157,-86 1660.9157,-122"/>
<text text-anchor="middle" x="1566" y="-99.8" font-family="Times,serif" font-size="14.00" fill="#000000">BlogGroupManageComponent</text>
</g>
<!-- BlogGroupManageComponent&#45;&gt;BlogModule -->
<g id="edge8" class="edge">
<title>BlogGroupManageComponent&#45;&gt;BlogModule</title>
<path fill="none" stroke="#000000" d="M1566,-122.1243C1566,-136.7832 1566,-155 1566,-155 1566,-155 1441.5437,-155 1441.5437,-155"/>
<polygon fill="#000000" stroke="#000000" points="1441.5437,-151.5001 1431.5437,-155 1441.5437,-158.5001 1441.5437,-151.5001"/>
</g>
<!-- BlogListComponent -->
<g id="node9" class="node">
<title>BlogListComponent</title>
<polygon fill="#ffffb3" stroke="#000000" points="1453.3384,-122 1322.6616,-122 1322.6616,-86 1453.3384,-86 1453.3384,-122"/>
<text text-anchor="middle" x="1388" y="-99.8" font-family="Times,serif" font-size="14.00" fill="#000000">BlogListComponent</text>
</g>
<!-- BlogListComponent&#45;&gt;BlogModule -->
<g id="edge9" class="edge">
<title>BlogListComponent&#45;&gt;BlogModule</title>
<path fill="none" stroke="#000000" d="M1388,-122.1061C1388,-122.1061 1388,-140.991 1388,-140.991"/>
<polygon fill="#000000" stroke="#000000" points="1384.5001,-140.9909 1388,-150.991 1391.5001,-140.991 1384.5001,-140.9909"/>
</g>
<!-- BlogManageComponent -->
<g id="node10" class="node">
<title>BlogManageComponent</title>
<polygon fill="#ffffb3" stroke="#000000" points="1304.6484,-122 1151.3516,-122 1151.3516,-86 1304.6484,-86 1304.6484,-122"/>
<text text-anchor="middle" x="1228" y="-99.8" font-family="Times,serif" font-size="14.00" fill="#000000">BlogManageComponent</text>
</g>
<!-- BlogManageComponent&#45;&gt;BlogModule -->
<g id="edge10" class="edge">
<title>BlogManageComponent&#45;&gt;BlogModule</title>
<path fill="none" stroke="#000000" d="M1228,-122.1243C1228,-136.7832 1228,-155 1228,-155 1228,-155 1334.7017,-155 1334.7017,-155"/>
<polygon fill="#000000" stroke="#000000" points="1334.7017,-158.5001 1344.7017,-155 1334.7017,-151.5001 1334.7017,-158.5001"/>
</g>
<!-- BlogMaterialModule -->
<g id="node12" class="node">
<title>BlogMaterialModule</title>
<polygon fill="#8dd3c7" stroke="#000000" points="1127.1979,-122 1124.1979,-126 1103.1979,-126 1100.1979,-122 992.8021,-122 992.8021,-86 1127.1979,-86 1127.1979,-122"/>
<text text-anchor="middle" x="1060" y="-99.8" font-family="Times,serif" font-size="14.00" fill="#000000">BlogMaterialModule</text>
</g>
<!-- BlogMaterialModule&#45;&gt;BlogModule -->
<g id="edge11" class="edge">
<title>BlogMaterialModule&#45;&gt;BlogModule</title>
<path fill="none" stroke="#000000" d="M1060,-122.0091C1060,-138.0494 1060,-159 1060,-159 1060,-159 1334.4441,-159 1334.4441,-159"/>
<polygon fill="#000000" stroke="#000000" points="1334.4442,-162.5001 1344.4441,-159 1334.4441,-155.5001 1334.4442,-162.5001"/>
</g>
<!-- BlogRoutingModule -->
<g id="node13" class="node">
<title>BlogRoutingModule</title>
<polygon fill="#8dd3c7" stroke="#000000" points="974.8948,-122 971.8948,-126 950.8948,-126 947.8948,-122 843.1052,-122 843.1052,-86 974.8948,-86 974.8948,-122"/>
<text text-anchor="middle" x="909" y="-99.8" font-family="Times,serif" font-size="14.00" fill="#000000">BlogRoutingModule</text>
</g>
<!-- BlogRoutingModule&#45;&gt;BlogModule -->
<g id="edge12" class="edge">
<title>BlogRoutingModule&#45;&gt;BlogModule</title>
<path fill="none" stroke="#000000" d="M909,-122.0225C909,-139.3734 909,-163 909,-163 909,-163 1334.6471,-163 1334.6471,-163"/>
<polygon fill="#000000" stroke="#000000" points="1334.6472,-166.5001 1344.6471,-163 1334.6471,-159.5001 1334.6472,-166.5001"/>
</g>
<!-- HasRoleModule -->
<g id="node14" class="node">
<title>HasRoleModule</title>
<polygon fill="#8dd3c7" stroke="#000000" points="824.7577,-122 821.7577,-126 800.7577,-126 797.7577,-122 717.2423,-122 717.2423,-86 824.7577,-86 824.7577,-122"/>
<text text-anchor="middle" x="771" y="-99.8" font-family="Times,serif" font-size="14.00" fill="#000000">HasRoleModule</text>
</g>
<!-- HasRoleModule&#45;&gt;BlogModule -->
<g id="edge13" class="edge">
<title>HasRoleModule&#45;&gt;BlogModule</title>
<path fill="none" stroke="#000000" d="M771,-122.2222C771,-140.8285 771,-167 771,-167 771,-167 1334.6138,-167 1334.6138,-167"/>
<polygon fill="#000000" stroke="#000000" points="1334.6138,-170.5001 1344.6138,-167 1334.6137,-163.5001 1334.6138,-170.5001"/>
</g>
<!-- PersianDateModule -->
<g id="node15" class="node">
<title>PersianDateModule</title>
<polygon fill="#8dd3c7" stroke="#000000" points="699.6839,-122 696.6839,-126 675.6839,-126 672.6839,-122 572.3161,-122 572.3161,-86 699.6839,-86 699.6839,-122"/>
<text text-anchor="middle" x="636" y="-99.8" font-family="Times,serif" font-size="14.00" fill="#000000">PersianDateModule</text>
</g>
<!-- PersianDateModule&#45;&gt;BlogModule -->
<g id="edge14" class="edge">
<title>PersianDateModule&#45;&gt;BlogModule</title>
<path fill="none" stroke="#000000" d="M636,-122.308C636,-142.1455 636,-171 636,-171 636,-171 1334.594,-171 1334.594,-171"/>
<polygon fill="#000000" stroke="#000000" points="1334.594,-174.5001 1344.594,-171 1334.5939,-167.5001 1334.594,-174.5001"/>
</g>
<!-- SharedEJTextEditorModule -->
<g id="node16" class="node">
<title>SharedEJTextEditorModule</title>
<polygon fill="#8dd3c7" stroke="#000000" points="554.5716,-122 551.5716,-126 530.5716,-126 527.5716,-122 381.4284,-122 381.4284,-86 554.5716,-86 554.5716,-122"/>
<text text-anchor="middle" x="468" y="-99.8" font-family="Times,serif" font-size="14.00" fill="#000000">SharedEJTextEditorModule</text>
</g>
<!-- SharedEJTextEditorModule&#45;&gt;BlogModule -->
<g id="edge15" class="edge">
<title>SharedEJTextEditorModule&#45;&gt;BlogModule</title>
<path fill="none" stroke="#000000" d="M468,-122.2843C468,-143.3211 468,-175 468,-175 468,-175 1334.5534,-175 1334.5534,-175"/>
<polygon fill="#000000" stroke="#000000" points="1334.5535,-178.5001 1344.5534,-175 1334.5534,-171.5001 1334.5535,-178.5001"/>
</g>
<!-- SharedTagInputModule -->
<g id="node17" class="node">
<title>SharedTagInputModule</title>
<polygon fill="#8dd3c7" stroke="#000000" points="363.7408,-122 360.7408,-126 339.7408,-126 336.7408,-122 214.2592,-122 214.2592,-86 363.7408,-86 363.7408,-122"/>
<text text-anchor="middle" x="289" y="-99.8" font-family="Times,serif" font-size="14.00" fill="#000000">SharedTagInputModule</text>
</g>
<!-- SharedTagInputModule&#45;&gt;BlogModule -->
<g id="edge16" class="edge">
<title>SharedTagInputModule&#45;&gt;BlogModule</title>
<path fill="none" stroke="#000000" d="M289,-122.1554C289,-144.3519 289,-179 289,-179 289,-179 1334.5794,-179 1334.5794,-179"/>
<polygon fill="#000000" stroke="#000000" points="1334.5794,-182.5001 1344.5794,-179 1334.5794,-175.5001 1334.5794,-182.5001"/>
</g>
<!-- BlogGroupService -->
<g id="node18" class="node">
<title>BlogGroupService</title>
<ellipse fill="#fdb462" stroke="#000000" cx="107" cy="-104" rx="83.3886" ry="18"/>
<text text-anchor="middle" x="107" y="-99.8" font-family="Times,serif" font-size="14.00" fill="#000000">BlogGroupService</text>
</g>
<!-- BlogGroupService&#45;&gt;BlogModule -->
<g id="edge17" class="edge">
<title>BlogGroupService&#45;&gt;BlogModule</title>
<path fill="none" stroke="#000000" d="M107,-122.3228C107,-145.6602 107,-183 107,-183 107,-183 1334.6448,-183 1334.6448,-183"/>
<polygon fill="#000000" stroke="#000000" points="1334.6449,-186.5001 1344.6448,-183 1334.6448,-179.5001 1334.6449,-186.5001"/>
</g>
</g>
</svg>
