<?xml version="1.0" encoding="UTF-8" standalone="no"?>
<!DOCTYPE svg PUBLIC "-//W3C//DTD SVG 1.1//EN"
 "http://www.w3.org/Graphics/SVG/1.1/DTD/svg11.dtd">
<!-- Generated by graphviz version 2.40.1 (20161225.0304)
 -->
<!-- Title: dependencies Pages: 1 -->
<svg width="504pt" height="211pt"
 viewBox="0.00 0.00 504.00 211.00" xmlns="http://www.w3.org/2000/svg" xmlns:xlink="http://www.w3.org/1999/xlink">
<g id="graph0" class="graph" transform="scale(1 1) rotate(0) translate(4 207)">
<title>dependencies</title>
<polygon fill="#ffffff" stroke="transparent" points="-4,4 -4,-207 500,-207 500,4 -4,4"/>
<text text-anchor="start" x="227.0091" y="-42.4" font-family="sans-serif" font-weight="bold" font-size="14.00" fill="#000000">Legend</text>
<polygon fill="#ffffb3" stroke="transparent" points="14,-10 14,-30 34,-30 34,-10 14,-10"/>
<text text-anchor="start" x="37.629" y="-15.4" font-family="sans-serif" font-size="14.00" fill="#000000"> &#160;Declarations</text>
<polygon fill="#8dd3c7" stroke="transparent" points="127,-10 127,-30 147,-30 147,-10 127,-10"/>
<text text-anchor="start" x="150.7251" y="-15.4" font-family="sans-serif" font-size="14.00" fill="#000000"> &#160;Module</text>
<polygon fill="#80b1d3" stroke="transparent" points="213,-10 213,-30 233,-30 233,-10 213,-10"/>
<text text-anchor="start" x="236.7812" y="-15.4" font-family="sans-serif" font-size="14.00" fill="#000000"> &#160;Bootstrap</text>
<polygon fill="#fdb462" stroke="transparent" points="310,-10 310,-30 330,-30 330,-10 310,-10"/>
<text text-anchor="start" x="333.6732" y="-15.4" font-family="sans-serif" font-size="14.00" fill="#000000"> &#160;Providers</text>
<polygon fill="#fb8072" stroke="transparent" points="406,-10 406,-30 426,-30 426,-10 406,-10"/>
<text text-anchor="start" x="429.7258" y="-15.4" font-family="sans-serif" font-size="14.00" fill="#000000"> &#160;Exports</text>
<g id="clust1" class="cluster">
<title>cluster_BlogMaterialModule</title>
<polygon fill="none" stroke="#000000" stroke-dasharray="1,5" points="173,-70 173,-195 323,-195 323,-70 173,-70"/>
</g>
<g id="clust3" class="cluster">
<title>cluster_BlogMaterialModule_imports</title>
<polygon fill="none" stroke="#000000" points="208,-78 208,-130 288,-130 288,-78 208,-78"/>
</g>
<!-- Material -->
<g id="node1" class="node">
<title>Material</title>
<polygon fill="#8dd3c7" stroke="#000000" points="279.9222,-122 276.9222,-126 255.9222,-126 252.9222,-122 216.0778,-122 216.0778,-86 279.9222,-86 279.9222,-122"/>
<text text-anchor="middle" x="248" y="-99.8" font-family="Times,serif" font-size="14.00" fill="#000000">Material</text>
</g>
<!-- BlogMaterialModule -->
<g id="node2" class="node">
<title>BlogMaterialModule</title>
<polygon fill="#8dd3c7" stroke="#000000" points="315.1979,-187 312.1979,-191 291.1979,-191 288.1979,-187 180.8021,-187 180.8021,-151 315.1979,-151 315.1979,-187"/>
<text text-anchor="middle" x="248" y="-164.8" font-family="Times,serif" font-size="14.00" fill="#000000">BlogMaterialModule</text>
</g>
<!-- Material&#45;&gt;BlogMaterialModule -->
<g id="edge1" class="edge">
<title>Material&#45;&gt;BlogMaterialModule</title>
<path fill="none" stroke="#000000" d="M237.4299,-122.1061C237.4299,-122.1061 237.4299,-140.991 237.4299,-140.991"/>
<polygon fill="#000000" stroke="#000000" points="233.93,-140.9909 237.4299,-150.991 240.93,-140.991 233.93,-140.9909"/>
</g>
<!-- Material&#45;&gt;BlogMaterialModule -->
<g id="edge2" class="edge">
<title>Material&#45;&gt;BlogMaterialModule</title>
<path fill="none" stroke="#000000" d="M258.5701,-122.1061C258.5701,-122.1061 258.5701,-140.991 258.5701,-140.991"/>
<polygon fill="#000000" stroke="#000000" points="255.0702,-140.9909 258.5701,-150.991 262.0702,-140.991 255.0702,-140.9909"/>
</g>
</g>
</svg>
