<?xml version="1.0" encoding="UTF-8" standalone="no"?>
<!DOCTYPE svg PUBLIC "-//W3C//DTD SVG 1.1//EN"
 "http://www.w3.org/Graphics/SVG/1.1/DTD/svg11.dtd">
<!-- Generated by graphviz version 2.40.1 (20161225.0304)
 -->
<!-- Title: dependencies Pages: 1 -->
<svg width="504pt" height="284pt"
 viewBox="0.00 0.00 504.00 284.00" xmlns="http://www.w3.org/2000/svg" xmlns:xlink="http://www.w3.org/1999/xlink">
<g id="graph0" class="graph" transform="scale(1 1) rotate(0) translate(4 280)">
<title>dependencies</title>
<polygon fill="#ffffff" stroke="transparent" points="-4,4 -4,-280 500,-280 500,4 -4,4"/>
<text text-anchor="start" x="227.0091" y="-42.4" font-family="sans-serif" font-weight="bold" font-size="14.00" fill="#000000">Legend</text>
<polygon fill="#ffffb3" stroke="transparent" points="14,-10 14,-30 34,-30 34,-10 14,-10"/>
<text text-anchor="start" x="37.629" y="-15.4" font-family="sans-serif" font-size="14.00" fill="#000000"> &#160;Declarations</text>
<polygon fill="#8dd3c7" stroke="transparent" points="127,-10 127,-30 147,-30 147,-10 127,-10"/>
<text text-anchor="start" x="150.7251" y="-15.4" font-family="sans-serif" font-size="14.00" fill="#000000"> &#160;Module</text>
<polygon fill="#80b1d3" stroke="transparent" points="213,-10 213,-30 233,-30 233,-10 213,-10"/>
<text text-anchor="start" x="236.7812" y="-15.4" font-family="sans-serif" font-size="14.00" fill="#000000"> &#160;Bootstrap</text>
<polygon fill="#fdb462" stroke="transparent" points="310,-10 310,-30 330,-30 330,-10 310,-10"/>
<text text-anchor="start" x="333.6732" y="-15.4" font-family="sans-serif" font-size="14.00" fill="#000000"> &#160;Providers</text>
<polygon fill="#fb8072" stroke="transparent" points="406,-10 406,-30 426,-30 426,-10 406,-10"/>
<text text-anchor="start" x="429.7258" y="-15.4" font-family="sans-serif" font-size="14.00" fill="#000000"> &#160;Exports</text>
<g id="clust1" class="cluster">
<title>cluster_PersianDateModule</title>
<polygon fill="none" stroke="#000000" stroke-dasharray="1,5" points="75,-70 75,-268 421,-268 421,-70 75,-70"/>
</g>
<g id="clust2" class="cluster">
<title>cluster_PersianDateModule_declarations</title>
<polygon fill="none" stroke="#000000" points="313,-78 313,-130 413,-130 413,-78 313,-78"/>
</g>
<g id="clust5" class="cluster">
<title>cluster_PersianDateModule_exports</title>
<polygon fill="none" stroke="#000000" points="219,-208 219,-260 323,-260 323,-208 219,-208"/>
</g>
<g id="clust7" class="cluster">
<title>cluster_PersianDateModule_providers</title>
<polygon fill="none" stroke="#000000" points="83,-78 83,-130 305,-130 305,-78 83,-78"/>
</g>
<!-- PersianDate -->
<g id="node1" class="node">
<title>PersianDate</title>
<polygon fill="#ffffb3" stroke="#000000" points="404.6348,-122 321.3652,-122 321.3652,-86 404.6348,-86 404.6348,-122"/>
<text text-anchor="middle" x="363" y="-99.8" font-family="Times,serif" font-size="14.00" fill="#000000">PersianDate</text>
</g>
<!-- PersianDateModule -->
<g id="node2" class="node">
<title>PersianDateModule</title>
<polygon fill="#8dd3c7" stroke="#000000" points="334.6839,-187 331.6839,-191 310.6839,-191 307.6839,-187 207.3161,-187 207.3161,-151 334.6839,-151 334.6839,-187"/>
<text text-anchor="middle" x="271" y="-164.8" font-family="Times,serif" font-size="14.00" fill="#000000">PersianDateModule</text>
</g>
<!-- PersianDate&#45;&gt;PersianDateModule -->
<g id="edge1" class="edge">
<title>PersianDate&#45;&gt;PersianDateModule</title>
<path fill="none" stroke="#000000" d="M327.8875,-122.1061C327.8875,-122.1061 327.8875,-140.991 327.8875,-140.991"/>
<polygon fill="#000000" stroke="#000000" points="324.3875,-140.9909 327.8875,-150.991 331.3875,-140.991 324.3875,-140.9909"/>
</g>
<!-- PersianDate  -->
<g id="node3" class="node">
<title>PersianDate </title>
<polygon fill="#fb8072" stroke="#000000" points="314.6341,-252 227.3659,-252 227.3659,-216 314.6341,-216 314.6341,-252"/>
<text text-anchor="middle" x="271" y="-229.8" font-family="Times,serif" font-size="14.00" fill="#000000">PersianDate </text>
</g>
<!-- PersianDateModule&#45;&gt;PersianDate  -->
<g id="edge2" class="edge">
<title>PersianDateModule&#45;&gt;PersianDate </title>
<path fill="none" stroke="#000000" stroke-dasharray="5,2" d="M271,-187.1061C271,-187.1061 271,-205.991 271,-205.991"/>
<polygon fill="#000000" stroke="#000000" points="267.5001,-205.9909 271,-215.991 274.5001,-205.991 267.5001,-205.9909"/>
</g>
<!-- PersianCalendarService -->
<g id="node4" class="node">
<title>PersianCalendarService</title>
<ellipse fill="#fdb462" stroke="#000000" cx="194" cy="-104" rx="103.0443" ry="18"/>
<text text-anchor="middle" x="194" y="-99.8" font-family="Times,serif" font-size="14.00" fill="#000000">PersianCalendarService</text>
</g>
<!-- PersianCalendarService&#45;&gt;PersianDateModule -->
<g id="edge3" class="edge">
<title>PersianCalendarService&#45;&gt;PersianDateModule</title>
<path fill="none" stroke="#000000" d="M252.34,-119.0757C252.34,-119.0757 252.34,-140.7642 252.34,-140.7642"/>
<polygon fill="#000000" stroke="#000000" points="248.8401,-140.7642 252.34,-150.7642 255.8401,-140.7642 248.8401,-140.7642"/>
</g>
</g>
</svg>
